# xmcd
#
# Track frame offsets: 
#        182
#        16772
#        28892
#
# Disc length: 627 seconds
#
# Revision: 1
# Processed by: cddbd v1.5.2PL0 Copyright (c) Steve Scherf et al.
# Submitted via: ExactAudioCopy v0.99pb4
#
DISCID=19027103
DTITLE=Tasmin Archer - One More Night With The Boys
DYEAR=1996
DGENRE=Other
TTITLE0=One More Night With The Boys
TTITLE1=Tumbling Tumbleweeds
TTITLE2=Deep Dark Truthful Mirror
EXTD=
EXTT0=
EXTT1=
EXTT2=
PLAYORDER=
